<?xml version="1.0" standalone="no"?>
<!DOCTYPE svg PUBLIC "-//W3C//DTD SVG 20010904//EN"
 "http://www.w3.org/TR/2001/REC-SVG-20010904/DTD/svg10.dtd">
<svg version="1.0" xmlns="http://www.w3.org/2000/svg"
 width="144.000000pt" height="144.000000pt" viewBox="0 0 144.000000 144.000000"
 preserveAspectRatio="xMidYMid meet">

<g transform="translate(0.000000,144.000000) scale(0.100000,-0.100000)"
fill="#000000" stroke="none">
<path d="M575 1425 c-156 -36 -253 -90 -365 -204 -94 -95 -142 -174 -182 -301
-33 -108 -33 -292 0 -400 36 -112 87 -203 163 -284 191 -205 461 -281 729
-206 124 35 204 84 306 185 78 78 98 104 137 185 103 213 103 427 0 640 -39
80 -59 108 -132 181 -145 144 -288 208 -486 215 -72 2 -131 -1 -170 -11z m283
-90 c197 -47 377 -210 443 -402 21 -59 24 -86 24 -208 -1 -127 -3 -146 -27
-207 -32 -82 -79 -156 -143 -226 l-48 -53 -19 43 -19 43 53 50 52 50 -3 100
c-3 108 -13 142 -56 193 -66 78 -187 100 -283 50 -94 -48 -158 -181 -125 -260
10 -23 10 -34 2 -45 -16 -19 4 -63 30 -63 10 0 26 -11 35 -25 9 -13 33 -34 54
-45 30 -17 33 -20 12 -18 -20 3 -27 -4 -42 -42 -9 -25 -20 -63 -24 -85 -6 -37
-9 -29 -46 109 -21 83 -43 155 -49 162 -6 7 -32 18 -60 25 -63 16 -63 35 1 74
51 31 58 39 40 50 -17 11 -11 23 13 27 22 3 24 9 12 38 -4 11 5 20 32 29 l37
14 -34 27 -33 27 59 28 59 27 -42 19 c-24 10 -43 23 -43 28 0 6 16 23 35 38
42 34 44 43 8 43 -16 0 -38 3 -51 6 l-23 6 31 54 c17 30 29 54 27 54 -2 0 -25
-7 -51 -16 -26 -9 -49 -14 -52 -12 -2 3 -7 32 -10 67 l-7 61 -26 -16 c-14 -9
-38 -28 -53 -42 l-28 -26 -36 42 c-38 44 -54 46 -54 7 0 -13 -4 -35 -10 -49
l-9 -25 -45 16 c-25 10 -48 15 -51 12 -2 -3 3 -24 12 -47 9 -23 14 -45 10 -48
-3 -3 -33 -8 -66 -11 -34 -3 -61 -8 -61 -11 0 -2 16 -22 35 -43 19 -22 35 -43
35 -48 0 -4 -18 -21 -40 -36 -44 -30 -51 -45 -21 -45 11 0 33 -11 48 -24 l28
-24 -27 -29 c-16 -16 -28 -32 -28 -35 0 -4 16 -12 35 -18 34 -11 35 -14 29
-46 -6 -33 -5 -34 25 -34 26 0 31 -4 31 -25 0 -27 17 -34 26 -11 4 11 12 10
39 -7 19 -12 34 -27 35 -34 0 -6 -26 -20 -57 -30 l-58 -19 -30 -91 -30 -91
-47 59 c-118 149 -163 337 -123 522 49 232 249 430 480 477 66 13 196 11 263
-5z m-474 -741 c3 -8 2 -12 -4 -9 -6 3 -10 10 -10 16 0 14 7 11 14 -7z m241
-174 c9 -16 13 -30 11 -30 -3 0 -12 14 -21 30 -9 17 -13 30 -11 30 3 0 12 -13
21 -30z m21 -140 c-14 -17 -26 -29 -26 -25 0 10 44 63 49 59 2 -2 -8 -17 -23
-34z"/>
</g>
</svg>
